<svg xmlns="http://www.w3.org/2000/svg" data-name="Layer 1" viewBox="0 0 100 100" x="0px" y="0px"><path d="M14,98H74A12,12,0,0,0,86,86V74a4,4,0,0,0-8,0V86a4,4,0,0,1-4,4H14a4,4,0,0,1-4-4V26a4,4,0,0,1,4-4H26a4,4,0,0,0,0-8H14A12,12,0,0,0,2,26V86A12,12,0,0,0,14,98Z"/><path d="M98,6a4,4,0,0,0-4-4H86A56.06,56.06,0,0,0,30,58v6.34L19.17,75.17a4,4,0,0,0,5.66,5.66L35.66,70H42A56,56,0,0,0,83.85,51.13a4,4,0,0,0,.21-5.06l-5.88-8a.14.14,0,0,1,.15-.09H90a4,4,0,0,0,3.69-2.46A55.63,55.63,0,0,0,98,14Zm-8,8a47.71,47.71,0,0,1-2.74,16H78.33A8.17,8.17,0,0,0,71.8,43.07l3.83,5.1A48,48,0,0,1,42,62H38V58A48.05,48.05,0,0,1,86,10h4Z"/></svg>
