<svg xmlns="http://www.w3.org/2000/svg" xmlns:xlink="http://www.w3.org/1999/xlink" version="1.1" x="0px" y="0px" viewBox="0 0 100 100" style="enable-background:new 0 0 100 100;" xml:space="preserve"><path d="M86,2H53.2C50,2,47,3.2,44.8,5.6L6.2,44c-5.4,5.4-5.4,14.4,0,19.8l0,0l29.8,30c5.4,5.4,14.4,5.4,19.8,0l0,0l38.6-38.6  C96.6,53,98,50,98,46.8V14C98,7.4,92.6,2,86,2z M90,46.6c0,1-0.4,2-1.2,2.8L50.2,88.2c-2.4,2.4-6.2,2.4-8.4,0l-30-29.8  c-2.4-2.4-2.4-6.2,0-8.4l38.6-38.6c0.8-0.8,1.8-1.2,2.8-1.2H86c2.2,0,4,1.8,4,4V46.6z"/><path d="M72,22c-3.4,0-6,2.6-6,6s2.6,6,6,6s6-2.6,6-6S75.4,22,72,22z"/></svg>
