<svg xmlns="http://www.w3.org/2000/svg" data-name="Layer 1" viewBox="0 0 100 100" x="0px" y="0px"><path d="M16.06,16.05C-2.82,34.93-3.23,66.42,15.17,84.82a4,4,0,1,0,5.66-5.66C5.5,63.83,5.9,37.52,21.71,21.7a40.07,40.07,0,0,1,56.58,0c15.81,15.82,16.21,42.13.88,57.46a4,4,0,0,0,5.66,5.66c18.4-18.4,18-49.89-.89-68.77A48,48,0,0,0,16.06,16.05Z"/><path d="M72.83,72.82A31.61,31.61,0,0,0,82.1,50.06a32.21,32.21,0,0,0-9.47-22.7,32,32,0,0,0-45.26,0,32.21,32.21,0,0,0-9.47,22.7,31.61,31.61,0,0,0,9.27,22.76,4,4,0,0,0,5.66-5.66,23.62,23.62,0,0,1-6.93-17A24.24,24.24,0,0,1,33,33,24,24,0,0,1,67,33a24.24,24.24,0,0,1,7.13,17.1,23.62,23.62,0,0,1-6.93,17,4,4,0,0,0,5.66,5.66Z"/><path d="M34,90a4,4,0,0,0,0,8H66a4,4,0,0,0,0-8H54V65.42a15.94,15.94,0,0,0,7.31-26.74,16.36,16.36,0,0,0-22.62,0A15.91,15.91,0,0,0,46,65.42V90Zm8-40a8,8,0,1,1,13.66,5.66,8.2,8.2,0,0,1-11.32,0A8,8,0,0,1,42,50Z"/></svg>
